<mxfile host="app.diagrams.net" modified="2024-06-07T13:38:44.041Z" agent="Mozilla/5.0 (Windows NT 10.0; Win64; x64) AppleWebKit/537.36 (KHTML, like Gecko) Chrome/125.0.0.0 Safari/537.36" etag="gTlAY4yjEUnIi82Q-Os4" version="24.5.2" type="device">
  <diagram name="Page-1" id="yj9Ki8REiO7vq_JUR7QX">
    <mxGraphModel dx="1050" dy="565" grid="1" gridSize="10" guides="1" tooltips="1" connect="1" arrows="1" fold="1" page="1" pageScale="1" pageWidth="1169" pageHeight="827" math="0" shadow="0">
      <root>
        <mxCell id="0" />
        <mxCell id="1" parent="0" />
        <mxCell id="eHMOOcfASh44HIWg8DIA-1" value="Учень" style="shape=umlActor;verticalLabelPosition=bottom;verticalAlign=top;html=1;outlineConnect=0;" vertex="1" parent="1">
          <mxGeometry x="180" y="170" width="30" height="60" as="geometry" />
        </mxCell>
        <mxCell id="eHMOOcfASh44HIWg8DIA-2" value="Вчитель" style="shape=umlActor;verticalLabelPosition=bottom;verticalAlign=top;html=1;outlineConnect=0;" vertex="1" parent="1">
          <mxGeometry x="180" y="290" width="30" height="60" as="geometry" />
        </mxCell>
        <mxCell id="eHMOOcfASh44HIWg8DIA-3" value="Проходження тестувань" style="ellipse;whiteSpace=wrap;html=1;" vertex="1" parent="1">
          <mxGeometry x="563.75" y="230" width="106.25" height="50" as="geometry" />
        </mxCell>
        <mxCell id="eHMOOcfASh44HIWg8DIA-4" value="Реєстрація/Вхід" style="ellipse;whiteSpace=wrap;html=1;" vertex="1" parent="1">
          <mxGeometry x="290" y="240" width="106.25" height="50" as="geometry" />
        </mxCell>
        <mxCell id="eHMOOcfASh44HIWg8DIA-5" value="Створення теми та тестуваня" style="ellipse;whiteSpace=wrap;html=1;" vertex="1" parent="1">
          <mxGeometry x="313.75" y="330" width="106.25" height="50" as="geometry" />
        </mxCell>
        <mxCell id="eHMOOcfASh44HIWg8DIA-6" value="Отримання результату" style="ellipse;whiteSpace=wrap;html=1;" vertex="1" parent="1">
          <mxGeometry x="650" y="310" width="106.25" height="50" as="geometry" />
        </mxCell>
        <mxCell id="eHMOOcfASh44HIWg8DIA-7" value="Перегляд особистого профілю" style="ellipse;whiteSpace=wrap;html=1;" vertex="1" parent="1">
          <mxGeometry x="396.25" y="180" width="106.25" height="50" as="geometry" />
        </mxCell>
        <mxCell id="eHMOOcfASh44HIWg8DIA-8" value="Перегляд всіх тестувань" style="ellipse;whiteSpace=wrap;html=1;" vertex="1" parent="1">
          <mxGeometry x="420" y="270" width="106.25" height="50" as="geometry" />
        </mxCell>
        <mxCell id="eHMOOcfASh44HIWg8DIA-10" value="" style="endArrow=none;html=1;rounded=0;entryX=0;entryY=1;entryDx=0;entryDy=0;" edge="1" parent="1" source="eHMOOcfASh44HIWg8DIA-2" target="eHMOOcfASh44HIWg8DIA-4">
          <mxGeometry width="50" height="50" relative="1" as="geometry">
            <mxPoint x="240" y="390" as="sourcePoint" />
            <mxPoint x="290" y="340" as="targetPoint" />
          </mxGeometry>
        </mxCell>
        <mxCell id="eHMOOcfASh44HIWg8DIA-11" value="" style="endArrow=none;html=1;rounded=0;entryX=0;entryY=0;entryDx=0;entryDy=0;" edge="1" parent="1" source="eHMOOcfASh44HIWg8DIA-1" target="eHMOOcfASh44HIWg8DIA-4">
          <mxGeometry width="50" height="50" relative="1" as="geometry">
            <mxPoint x="320" y="440" as="sourcePoint" />
            <mxPoint x="370" y="390" as="targetPoint" />
          </mxGeometry>
        </mxCell>
        <mxCell id="eHMOOcfASh44HIWg8DIA-12" value="" style="endArrow=none;dashed=1;html=1;rounded=0;entryX=1;entryY=0;entryDx=0;entryDy=0;exitX=0;exitY=1;exitDx=0;exitDy=0;" edge="1" parent="1" source="eHMOOcfASh44HIWg8DIA-7" target="eHMOOcfASh44HIWg8DIA-4">
          <mxGeometry width="50" height="50" relative="1" as="geometry">
            <mxPoint x="330" y="430" as="sourcePoint" />
            <mxPoint x="380" y="380" as="targetPoint" />
          </mxGeometry>
        </mxCell>
        <mxCell id="eHMOOcfASh44HIWg8DIA-13" value="" style="endArrow=none;html=1;rounded=0;entryX=0;entryY=0.5;entryDx=0;entryDy=0;" edge="1" parent="1" source="eHMOOcfASh44HIWg8DIA-2" target="eHMOOcfASh44HIWg8DIA-5">
          <mxGeometry width="50" height="50" relative="1" as="geometry">
            <mxPoint x="220" y="480" as="sourcePoint" />
            <mxPoint x="270" y="430" as="targetPoint" />
          </mxGeometry>
        </mxCell>
        <mxCell id="eHMOOcfASh44HIWg8DIA-14" value="" style="endArrow=none;dashed=1;html=1;rounded=0;exitX=1;exitY=0.5;exitDx=0;exitDy=0;entryX=0;entryY=0.5;entryDx=0;entryDy=0;" edge="1" parent="1" source="eHMOOcfASh44HIWg8DIA-4" target="eHMOOcfASh44HIWg8DIA-8">
          <mxGeometry width="50" height="50" relative="1" as="geometry">
            <mxPoint x="360" y="480" as="sourcePoint" />
            <mxPoint x="410" y="430" as="targetPoint" />
          </mxGeometry>
        </mxCell>
        <mxCell id="eHMOOcfASh44HIWg8DIA-15" value="" style="endArrow=none;dashed=1;html=1;rounded=0;exitX=1;exitY=0.5;exitDx=0;exitDy=0;entryX=0;entryY=0.5;entryDx=0;entryDy=0;" edge="1" parent="1" source="eHMOOcfASh44HIWg8DIA-8" target="eHMOOcfASh44HIWg8DIA-3">
          <mxGeometry width="50" height="50" relative="1" as="geometry">
            <mxPoint x="590" y="450" as="sourcePoint" />
            <mxPoint x="640" y="400" as="targetPoint" />
          </mxGeometry>
        </mxCell>
        <mxCell id="eHMOOcfASh44HIWg8DIA-16" value="" style="endArrow=none;dashed=1;html=1;rounded=0;exitX=0.5;exitY=1;exitDx=0;exitDy=0;entryX=0;entryY=0;entryDx=0;entryDy=0;" edge="1" parent="1" source="eHMOOcfASh44HIWg8DIA-3" target="eHMOOcfASh44HIWg8DIA-6">
          <mxGeometry width="50" height="50" relative="1" as="geometry">
            <mxPoint x="540" y="440" as="sourcePoint" />
            <mxPoint x="590" y="390" as="targetPoint" />
          </mxGeometry>
        </mxCell>
      </root>
    </mxGraphModel>
  </diagram>
</mxfile>
